<svg width="515" height="96" xmlns="http://www.w3.org/2000/svg" data-bbox="19.92012205687618 158.22970358396196 439.63429535669616 96.11062201830975" class="fl-svgdocument">

 <g>
  <title>Layer 1</title>
  <g data-uid="o_fdi78di0i_6" transform="matrix(0.62915 0 0 0.614136 -88.4323 103.704)" id="_1okLasMQs-nIAbPV2iyDb">
   <path data-uid="o_fdi78di0i_7" fill="#7b31fc" d="m279.74601,-147.86383l-5.17129,-2.23116c-2.62735,-1.12601 -5.71344,0.08341 -6.83944,2.71075l-7.69437,17.87013l-62.03458,-26.71136c-0.87578,-7.11052 -6.96455,-12.63629 -14.30444,-12.63629c-7.9446,0 -14.42956,6.46411 -14.42956,14.4087c0,7.9446 6.46411,14.42956 14.42956,14.42956c2.56479,0 4.98362,-0.66726 7.06881,-1.85582l67.22672,28.96337l5.65088,2.43968c2.25201,0.98004 4.85851,0.20852 6.25559,-1.70986c0.22937,-0.31278 0.41704,-0.64641 0.563,-1.00089l2.31457,-5.35895l0.0417,-0.08341l9.65446,-22.41586c1.12601,-2.60649 -0.10426,-5.67173 -2.73161,-6.81859zm-96.04412,1.23027c-0.50045,0 -0.98004,-0.0417 -1.45964,-0.14596c-3.60739,-0.68811 -6.339,-3.85761 -6.339,-7.67352c0,-4.2955 3.50313,-7.79863 7.79863,-7.79863c2.33542,0 4.42062,1.02175 5.83855,2.6482c1.20941,1.37623 1.96008,3.19035 1.96008,5.17129c0,4.2955 -3.50313,7.79863 -7.79863,7.79863z" id="_Fl2Scs4_wOHmg5OewV_GS"/>
   <path data-uid="o_fdi78di0i_8" fill="#33364d" d="m255.32303,-136.63078l-32.82098,-14.13763c-1.27197,-0.54215 -1.85582,-2.02264 -1.31367,-3.29461l4.37891,-10.1549c0.54215,-1.27197 2.02264,-1.85582 3.29461,-1.31367l32.82098,14.13763c1.27197,0.54215 1.85582,2.02264 1.31367,3.29461l-4.37891,10.1549c-0.54215,1.27197 -2.02264,1.85582 -3.29461,1.31367z" id="_ylJJOq6xC4o6BEfUmBUra"/>
   <path data-uid="o_fdi78di0i_9" fill="#7b31fc" d="m291.35445,-80.45428l13.99166,-32.88354c0.54215,-1.27197 2.02264,-1.85582 3.27376,-1.31367l10.1549,4.31636c1.27197,0.54215 1.85582,2.02264 1.31367,3.27376l-13.99166,32.88354c-0.54215,1.27197 -2.02264,1.85582 -3.27376,1.31367l-10.1549,-4.31636c-1.25112,-0.54215 -1.85582,-2.02264 -1.31367,-3.27376z" id="_-X9hASYMVyRCYiqeY_XF9"/>
   <path data-uid="o_fdi78di0i_10" fill="#33364d" d="m235.19819,-44.27806l32.9461,13.8457c1.27197,0.54215 1.87668,2.00179 1.33453,3.27376l-4.27465,10.17576c-0.54215,1.27197 -2.00179,1.87668 -3.27376,1.33453l-32.9461,-13.8457c-1.27197,-0.54215 -1.87668,-2.00179 -1.33453,-3.27376l4.27465,-10.17576c0.5213,-1.27197 2.00179,-1.87668 3.27376,-1.33453z" id="_C6xIPFOMuRv8iGuhwgHGI"/>
   <path data-uid="o_fdi78di0i_11" fill="#7b31fc" d="m198.81904,-100.09112l-13.69974,33.00865c-0.5213,1.27197 -2.00179,1.87668 -3.27376,1.35538l-10.19661,-4.23295c-1.27197,-0.5213 -1.87668,-2.00179 -1.35538,-3.27376l13.69974,-32.9878c0.5213,-1.27197 2.00179,-1.87668 3.27376,-1.35538l10.19661,4.23295c1.29282,0.5213 1.89753,1.98094 1.35538,3.25291z" id="_MlIuLZQfTU_n82zo4SSOF"/>
   <path data-uid="o_fdi78di0i_12" fill="#33364d" d="m308.28037,-167.29782c-7.9446,0 -14.42956,6.46411 -14.42956,14.4087c0,2.89842 0.85493,5.58833 2.33542,7.84034l-28.58804,67.20586l-2.39798,5.65088c-0.31278,0.75067 -0.45874,1.54304 -0.41704,2.31457c0,0.0417 0,0.10426 0.02085,0.14596c0,0.06256 0,0.10426 0.02085,0.16682c0,0 0,0.02085 0,0.02085c0.02085,0.08341 0.02085,0.18767 0.0417,0.27108c0.02085,0.08341 0.02085,0.16682 0.0417,0.25022c0,0.0417 0.02085,0.08341 0.0417,0.12511c0.02085,0.08341 0.0417,0.14596 0.06256,0.20852c0.02085,0.08341 0.0417,0.16682 0.08341,0.25022c0,0.0417 0.02085,0.06256 0.0417,0.10426c0.02085,0.08341 0.06256,0.16682 0.10426,0.22937c0.0417,0.08341 0.06256,0.14596 0.10426,0.22937c0.02085,0.0417 0.0417,0.10426 0.08341,0.14596c0,0.02085 0.02085,0.0417 0.02085,0.06256c0.0417,0.06256 0.06256,0.12511 0.10426,0.16682c0.02085,0.06256 0.06256,0.10426 0.10426,0.14596c0.0417,0.06256 0.08341,0.14596 0.14596,0.20852c0.0417,0.0417 0.06256,0.10426 0.10426,0.14596c0.06256,0.06256 0.10426,0.12511 0.16682,0.20852c0.0417,0.0417 0.06256,0.08341 0.10426,0.12511c0.02085,0.02085 0.02085,0.02085 0.0417,0.0417c0.02085,0.02085 0.02085,0.02085 0.0417,0.0417c0.02085,0.02085 0.02085,0.02085 0.02085,0.02085c0.14596,0.14596 0.29193,0.29193 0.45874,0.41704c0,0 0,0 0,0c0.08341,0.06256 0.16682,0.12511 0.25022,0.18767c0.31278,0.22937 0.64641,0.41704 1.00089,0.563l5.21299,2.23116l0.25022,0.10426l22.45756,9.5502c2.62735,1.12601 5.71344,-0.12511 6.81859,-2.75246l2.21031,-5.19214c1.12601,-2.62735 -0.12511,-5.69258 -2.75246,-6.81859l-17.91183,-7.61097l26.73221,-62.82695c6.69348,-1.25112 11.76051,-7.13137 11.76051,-14.17933c-0.06256,-7.9446 -6.52666,-14.4087 -14.49211,-14.4087zm5.69258,19.74681c-1.41793,1.52219 -3.44057,2.46053 -5.69258,2.46053c-4.2955,0 -7.79863,-3.50313 -7.79863,-7.79863c0,-0.14596 0,-0.31278 0.02085,-0.45874l0,0c0.22937,-4.08698 3.62824,-7.33989 7.79863,-7.33989c4.2955,0 7.79863,3.50313 7.79863,7.79863c0,2.06434 -0.81323,3.94102 -2.1269,5.3381z" id="_lvmqmwhDVeFZ_HFAdwjNl"/>
   <path data-uid="o_fdi78di0i_13" fill="#33364d" d="m223.40423,-114.66397c-0.39619,-0.33363 -0.83408,-0.60471 -1.31367,-0.79237l-5.42151,-2.25201l-0.06256,-0.02085l-22.54097,-9.34168c-2.6482,-1.10515 -5.71344,0.16682 -6.79774,2.81501l-2.1686,5.21299c-1.10515,2.6482 0.16682,5.71344 2.81501,6.79774l17.97439,7.465l-26.35688,63.51507c-5.98451,1.75156 -10.36342,7.29819 -10.36342,13.8457c0,7.9446 6.46411,14.42956 14.42956,14.42956c7.9446,0 14.42956,-6.46411 14.42956,-14.42956c0,-3.37802 -1.16771,-6.48496 -3.12779,-8.94549l27.62885,-66.62201c0.08341,-0.14596 0.14596,-0.29193 0.20852,-0.43789l2.1686,-5.21299c0.87578,-2.1686 0.20852,-4.60828 -1.50134,-6.02622zm-39.80639,95.04323c-4.2955,0 -7.79863,-3.50313 -7.79863,-7.79863c0,-1.58475 0.4796,-3.04439 1.27197,-4.27465c1.39708,-2.1269 3.79506,-3.52398 6.52666,-3.52398c4.02443,0 7.33989,3.06524 7.75693,6.98541l0,0c0.02085,0.27108 0.0417,0.54215 0.0417,0.81323c0,4.2955 -3.50313,7.79863 -7.79863,7.79863z" id="_Zaq_LSCsA51_rTNqmlLFO"/>
   <path data-uid="o_fdi78di0i_14" fill="#7b31fc" d="m307.40295,-41.43207c-2.60649,0 -5.06703,0.70897 -7.19393,1.91838l-67.76887,-28.46292l-5.65088,-2.37712c-2.02264,-0.83408 -4.2955,-0.31278 -5.73429,1.16771c-0.43789,0.45874 -0.81323,0.98004 -1.06345,1.6056l-2.25201,5.35895l-9.48764,22.60352c-1.10515,2.6482 0.14596,5.71344 2.77331,6.81859l5.19214,2.18946c2.6482,1.10515 5.71344,-0.14596 6.81859,-2.77331l7.54841,-17.95354l62.53503,26.27347c0.93834,7.04796 6.98541,12.49032 14.28359,12.49032c7.9446,0 14.42956,-6.46411 14.42956,-14.42956c0,-7.9446 -6.46411,-14.42956 -14.42956,-14.42956zm0,22.22819c-2.35627,0 -4.46232,-1.0426 -5.88025,-2.6899l0,0c-1.18856,-1.37623 -1.91838,-3.1695 -1.91838,-5.10873c0,-4.2955 3.50313,-7.79863 7.79863,-7.79863c0.39619,0 0.77152,0.02085 1.16771,0.08341c3.75335,0.563 6.65178,3.81591 6.65178,7.71522c0,4.2955 -3.50313,7.79863 -7.81948,7.79863z" id="_z0Xkf1PDXmE11S_mmEETh"/>
  </g>
  <path stroke-width="0" d="m188.67978,42.43111l0,0l13.24492,0q4.06378,0.15051 4.96684,2.10715l0,0q0.75255,1.42985 0.75255,4.21429l0,0l0,16.55615q0,2.40817 -2.10715,4.59057l0,0q-6.32144,6.5472 -18.96432,6.5472l0,0q-11.21303,0 -19.4911,-8.46621q-8.27807,-8.46621 -8.27807,-20.43179q0,-11.96558 8.42858,-19.98026q8.42858,-8.01468 19.86738,-8.01468l0,0q8.88012,0 16.78191,5.86991l0,0q2.03189,1.5051 2.03189,3.34886q0,1.84375 -1.73087,4.25192l0,0q-2.93495,3.98853 -5.34312,3.98853l0,0q-1.42985,0 -4.59057,-2.06952q-3.16072,-2.06952 -7.52552,-2.06952l0,0q-5.7194,0 -10.15945,4.02615q-4.44006,4.02615 -4.44006,10.53573q0,6.50958 4.51531,11.06252q4.51531,4.55294 10.23471,4.55294l0,0q4.13904,0 7.45027,-1.35459l0,0l0,-8.20282l-5.94516,0q-2.33291,0 -3.31123,-0.60204q-0.97832,-0.60204 -1.27934,-1.7685q-0.30102,-1.16646 -0.30102,-3.16072q0,-1.99426 0.33865,-3.19835q0.33865,-1.20408 1.24171,-1.65561l0,0q1.35459,-0.6773 3.61225,-0.6773zm67.20291,23.93116l0,0q1.12883,2.70919 1.12883,3.91327l0,0q0,2.8597 -4.66582,4.81633l0,0q-2.40817,1.05357 -3.87564,1.05357q-1.46748,0 -2.40817,-0.71492q-0.94069,-0.71492 -1.39222,-1.46748l0,0q-0.75255,-1.42985 -5.86991,-13.6212l0,0l-2.33291,0.15051l-9.48216,0l0,8.50384q0,1.73087 -0.11288,2.59631q-0.11288,0.86544 -0.71492,1.99426l0,0q-1.05357,2.03189 -5.86991,2.03189l0,0q-5.26787,0 -6.17093,-2.78444l0,0q-0.45153,-1.27934 -0.45153,-3.91327l0,0l0,-41.76665q0,-1.73087 0.11288,-2.59631q0.11288,-0.86544 0.71492,-1.99426l0,0q1.05357,-2.03189 5.86991,-2.03189l0,0l16.25513,0q6.62246,0 12.86864,4.81633l0,0q3.01021,2.33291 4.96684,6.32144q1.95664,3.98853 1.95664,8.88012l0,0q0,8.50384 -5.64414,13.99747l0,0q1.65561,3.98853 5.11736,11.81507zm-28.898,-32.51026l0,13.32017l9.63267,0q2.1824,0 4.3648,-1.65561q2.1824,-1.65561 2.1824,-4.96684q0,-3.31123 -2.1824,-5.00447q-2.1824,-1.69324 -4.51531,-1.69324l0,0l-9.48216,0zm41.0141,-13.32017l29.65056,0q1.73087,0 2.59631,0.11288q0.86544,0.11288 1.95664,0.71492q1.0912,0.60204 1.54273,2.03189q0.45153,1.42985 0.45153,3.83802q0,2.40817 -0.45153,3.83802q-0.45153,1.42985 -1.58036,1.99426q-1.12883,0.56441 -1.99426,0.6773q-0.86544,0.11288 -2.67156,0.11288l0,0l-23.0281,0l0,7.60078l14.82528,0q1.80613,0 2.67156,0.11288q0.86544,0.11288 1.99426,0.71492l0,0q1.95664,1.12883 1.95664,5.94516l0,0q0,5.26787 -2.8597,6.24618l0,0q-1.20408,0.37628 -3.83802,0.37628l0,0l-14.75002,0l0,14.22324q0,1.80613 -0.11288,2.63393q-0.11288,0.82781 -0.71492,1.95664l0,0q-1.05357,2.03189 -5.86991,2.03189l0,0q-5.26787,0 -6.17093,-2.8597l0,0q-0.45153,-1.20408 -0.45153,-3.83802l0,0l0,-41.8419q0,-3.83802 1.42985,-5.23024q1.42985,-1.39222 5.41838,-1.39222l0,0z" data-uid="o_fdi78di0i_15" y="0" x="0" font-scale="contain" font-family="Fredoka One" space="preserve" dy="0" dx="0" offset="0" side="left" letter-spacing="0" font-size="100" text-anchor="start" text="GRF" fill="#c3c4c6" id="_m77QNyT4vtXHEi9tJOdSZ"/>
  <path d="m324.65479,21.71841l0,0l41.80992,0q2.40633,0 3.53429,0.56398q1.12797,0.56398 1.50395,1.76715q0.37599,1.20316 0.37599,3.1583q0,1.95514 -0.37599,3.1207q-0.37599,1.16556 -1.27836,1.61675l0,0q-1.35356,0.67678 -3.83508,0.67678l0,0l-14.36276,0l0,37.82444q0,1.72955 -0.1128,2.55672q-0.1128,0.82717 -0.67678,1.91754q-0.56398,1.09037 -1.99274,1.54155q-1.42876,0.45119 -3.75988,0.45119q-2.33113,0 -3.72229,-0.45119q-1.39116,-0.45119 -1.95514,-1.54155q-0.56398,-1.09037 -0.67678,-1.95514q-0.1128,-0.86477 -0.1128,-2.59432l0,0l0,-37.74924l-14.43796,0q-2.40633,0 -3.53429,-0.56398q-1.12797,-0.56398 -1.50395,-1.76715q-0.37599,-1.20316 -0.37599,-3.1583q0,-1.95514 0.37599,-3.1207q0.37599,-1.16556 1.27836,-1.61675l0,0q1.35356,-0.67678 3.83508,-0.67678zm68.05391,19.77699l0,0q0.45119,-4.21107 5.94062,-4.21107l0,0q2.93271,0 4.36147,0.45119q1.42876,0.45119 1.99274,1.57915q0.56398,1.12797 0.67678,1.99274q0.1128,0.86477 0.1128,2.59432l0,0l0,26.31919q0,1.72955 -0.1128,2.59432q-0.1128,0.86477 -0.63918,1.99274l0,0q-1.05277,1.95514 -5.15104,1.95514q-4.09827,0 -5.48943,-1.01517q-1.39116,-1.01517 -1.61675,-2.97031l0,0q-2.78231,3.98548 -9.28691,3.98548q-6.5046,0 -12.06923,-5.94062q-5.56463,-5.94062 -5.56463,-13.79878q0,-7.85816 5.60223,-13.76118q5.60223,-5.90302 12.29482,-5.90302l0,0q2.55672,0 4.66226,0.90237q2.10554,0.90237 2.93271,1.69195q0.82717,0.78958 1.35356,1.54155zm-13.68598,15.64112q0,2.48152 1.95514,4.47426q1.95514,1.99274 4.73745,1.99274q2.78231,0 4.62466,-2.03034q1.84234,-2.03034 1.84234,-4.47426q0,-2.44392 -1.76715,-4.54946q-1.76715,-2.10554 -4.73745,-2.10554q-2.97031,0 -4.81265,2.10554q-1.84234,2.10554 -1.84234,4.58706zm32.78619,3.91028l0,-35.7941q0,-1.72955 0.1128,-2.59432q0.1128,-0.86477 0.63918,-1.99274l0,0q1.05277,-2.03034 5.86542,-2.03034l0,0q4.58706,0 5.71502,2.03034l0,0q0.60158,1.12797 0.71438,2.03034q0.1128,0.90237 0.1128,2.63192l0,0l0,34.81653q0,2.70712 0.45119,3.42149q0.45119,0.71438 1.99274,0.71438q1.54155,0 2.06794,0.1128q0.52638,0.1128 1.27836,0.63918l0,0q1.50395,0.97757 1.50395,5.33904l0,0q0,4.73745 -1.50395,5.79022l0,0q-1.95514,1.35356 -9.32451,0.45119l0,0q-5.79022,-0.75198 -7.51977,-3.83508l0,0q-2.10554,-3.68469 -2.10554,-11.73084l0,0zm55.3455,-10.30208l-7.44457,6.31661l10.00129,8.27175q1.87994,1.57915 2.36873,2.40633q0.48878,0.82717 0.48878,1.57915l0,0q0,1.80474 -2.33113,4.88785l0,0q-2.55672,3.1583 -4.51186,3.1583l0,0q-1.65435,0 -4.58706,-2.18073l0,0l-0.75198,-0.52638q-1.72955,-1.42876 -5.33904,-5.00065q-3.60949,-3.57189 -5.48943,-5.07584l0,0l0,5.79022q0,1.72955 -0.1128,2.59432q-0.1128,0.86477 -0.71438,1.99274l0,0q-0.97757,1.95514 -5.79022,1.95514l0,0q-4.73745,0 -5.79022,-2.03034l0,0q-0.52638,-1.12797 -0.63918,-1.99274q-0.1128,-0.86477 -0.1128,-2.59432l0,0l0,-45.04342q0,-1.72955 0.1128,-2.59432q0.1128,-0.86477 0.63918,-1.99274l0,0q1.05277,-2.03034 5.86542,-2.03034l0,0q3.60949,0 5.11344,1.27836l0,0q1.27836,1.05277 1.35356,3.3087l0,0q0.0752,0.67678 0.0752,2.10554l0,0l0,23.83767q1.35356,-1.12797 4.09827,-3.83508q2.74472,-2.70712 4.09827,-3.83508l0,0l0.90237,-0.60158q2.63192,-2.03034 4.51186,-2.03034q1.87994,0 4.32387,3.04551q2.44392,3.04551 2.44392,4.77505q0,1.72955 -2.78231,4.06068l0,0z" data-uid="o_fdi78di0i_16" id="_l72xs0N_eCgPrC2a6hP3o" fill="#7b31fc" y="0" x="0" font-scale="contain" font-family="Fredoka One" space="preserve" dy="0" dx="0" offset="0" side="left" letter-spacing="0" font-size="100" text-anchor="start" text="Talk"/>
 </g>
</svg>